v 0.500000 0.500000 -0.500000
v 0.500000 -0.500000 -0.500000
v 0.500000 0.500000 0.500000
v 0.500000 -0.500000 0.500000
v -0.500000 0.500000 -0.500000
v -0.500000 -0.500000 -0.500000
v -0.500000 0.500000 0.500000
v -0.500000 -0.500000 0.500000
vt 0.666666 0.505000
vt 1.0 0.505000
vt 1.0 0.745000
vt 0.666666 0.745000
vt 0.343333 0.745000
vt 0.666666 0.985999
vt 0.343333 0.985999
vt 0.343333 0.020000
vt 0.666666 0.020000
vt 0.666666 0.250000
vt 0.343333 0.250000
vt 0.0 0.505000
vt 0.343333 0.505000
vt 0.0 0.745000
vn 0.0000 1.0000 0.0000
vn 0.0000 0.0000 1.0000
vn -1.0000 0.0000 0.0000
vn 0.0000 -1.0000 0.0000
vn 1.0000 0.0000 0.0000
vn 0.0000 0.0000 -1.0000
f 1/1/1 5/2/1 7/3/1 3/4/1
f 4/5/2 3/4/2 7/6/2 8/7/2
f 8/8/3 7/9/3 5/10/3 6/11/3
f 6/12/4 2/13/4 4/5/4 8/14/4
f 2/13/5 1/1/5 3/4/5 4/5/5
f 6/11/6 5/10/6 1/1/6 2/13/6