# Blender 3.5.0
# www.blender.org
mtllib SelectedCube.mtl
o Cube
v -0.504000 -0.496000 -0.500000
v -0.504000 -0.504000 -0.500000
v -0.504000 -0.496000 0.500000
v -0.504000 -0.504000 0.500000
v -0.496000 -0.496000 -0.500000
v -0.496000 -0.504000 -0.500000
v -0.496000 -0.496000 0.500000
v -0.496000 -0.504000 0.500000
vn -0.0000 1.0000 -0.0000
vn -0.0000 -0.0000 1.0000
vn 1.0000 -0.0000 -0.0000
vn -0.0000 -1.0000 -0.0000
vn -1.0000 -0.0000 -0.0000
vn -0.0000 -0.0000 -1.0000
vt 0.625000 0.500000
vt 0.375000 0.500000
vt 0.625000 0.750000
vt 0.375000 0.750000
vt 0.875000 0.500000
vt 0.625000 0.250000
vt 0.125000 0.500000
vt 0.375000 0.250000
vt 0.875000 0.750000
vt 0.625000 1.000000
vt 0.625000 0.000000
vt 0.375000 1.000000
vt 0.375000 0.000000
vt 0.125000 0.750000
s 0
usemtl Material
f 1/1/1 3/3/1 7/9/1 5/5/1
f 4/4/2 8/12/2 7/10/2 3/3/2
f 8/13/3 6/8/3 5/6/3 7/11/3
f 6/7/4 8/14/4 4/4/4 2/2/4
f 2/2/5 4/4/5 3/3/5 1/1/5
f 6/8/6 2/2/6 1/1/6 5/6/6
o Cube.002
v -0.503000 0.503000 -0.500000
v -0.503000 0.497000 -0.500000
v -0.503000 0.503000 0.500000
v -0.503000 0.497000 0.500000
v -0.497000 0.503000 -0.500000
v -0.497000 0.497000 -0.500000
v -0.497000 0.503000 0.500000
v -0.497000 0.497000 0.500000
vn -0.0000 1.0000 -0.0000
vn -0.0000 -0.0000 1.0000
vn 1.0000 -0.0000 -0.0000
vn -0.0000 -1.0000 -0.0000
vn -1.0000 -0.0000 -0.0000
vn -0.0000 -0.0000 -1.0000
vt 0.625000 0.500000
vt 0.375000 0.500000
vt 0.625000 0.750000
vt 0.375000 0.750000
vt 0.875000 0.500000
vt 0.625000 0.250000
vt 0.125000 0.500000
vt 0.375000 0.250000
vt 0.875000 0.750000
vt 0.625000 1.000000
vt 0.625000 0.000000
vt 0.375000 1.000000
vt 0.375000 0.000000
vt 0.125000 0.750000
s 0
usemtl Material.002
f 9/15/7 11/17/7 15/23/7 13/19/7
f 12/18/8 16/26/8 15/24/8 11/17/8
f 16/27/9 14/22/9 13/20/9 15/25/9
f 14/21/10 16/28/10 12/18/10 10/16/10
f 10/16/11 12/18/11 11/17/11 9/15/11
f 14/22/12 10/16/12 9/15/12 13/20/12
o Cube.001
v 0.497000 0.503000 -0.500000
v 0.497000 0.497000 -0.500000
v 0.497000 0.503000 0.500000
v 0.497000 0.497000 0.500000
v 0.503000 0.503000 -0.500000
v 0.503000 0.497000 -0.500000
v 0.503000 0.503000 0.500000
v 0.503000 0.497000 0.500000
vn -0.0000 1.0000 -0.0000
vn -0.0000 -0.0000 1.0000
vn 1.0000 -0.0000 -0.0000
vn -0.0000 -1.0000 -0.0000
vn -1.0000 -0.0000 -0.0000
vn -0.0000 -0.0000 -1.0000
vt 0.625000 0.500000
vt 0.375000 0.500000
vt 0.625000 0.750000
vt 0.375000 0.750000
vt 0.875000 0.500000
vt 0.625000 0.250000
vt 0.125000 0.500000
vt 0.375000 0.250000
vt 0.875000 0.750000
vt 0.625000 1.000000
vt 0.625000 0.000000
vt 0.375000 1.000000
vt 0.375000 0.000000
vt 0.125000 0.750000
s 0
usemtl Material.003
f 17/29/13 19/31/13 23/37/13 21/33/13
f 20/32/14 24/40/14 23/38/14 19/31/14
f 24/41/15 22/36/15 21/34/15 23/39/15
f 22/35/16 24/42/16 20/32/16 18/30/16
f 18/30/17 20/32/17 19/31/17 17/29/17
f 22/36/18 18/30/18 17/29/18 21/34/18
o Cube.003
v 0.497000 -0.497000 -0.500000
v 0.497000 -0.503000 -0.500000
v 0.497000 -0.497000 0.500000
v 0.497000 -0.503000 0.500000
v 0.503000 -0.497000 -0.500000
v 0.503000 -0.503000 -0.500000
v 0.503000 -0.497000 0.500000
v 0.503000 -0.503000 0.500000
vn -0.0000 1.0000 -0.0000
vn -0.0000 -0.0000 1.0000
vn 1.0000 -0.0000 -0.0000
vn -0.0000 -1.0000 -0.0000
vn -1.0000 -0.0000 -0.0000
vn -0.0000 -0.0000 -1.0000
vt 0.625000 0.500000
vt 0.375000 0.500000
vt 0.625000 0.750000
vt 0.375000 0.750000
vt 0.875000 0.500000
vt 0.625000 0.250000
vt 0.125000 0.500000
vt 0.375000 0.250000
vt 0.875000 0.750000
vt 0.625000 1.000000
vt 0.625000 0.000000
vt 0.375000 1.000000
vt 0.375000 0.000000
vt 0.125000 0.750000
s 0
usemtl Material.004
f 25/43/19 27/45/19 31/51/19 29/47/19
f 28/46/20 32/54/20 31/52/20 27/45/20
f 32/55/21 30/50/21 29/48/21 31/53/21
f 30/49/22 32/56/22 28/46/22 26/44/22
f 26/44/23 28/46/23 27/45/23 25/43/23
f 30/50/24 26/44/24 25/43/24 29/48/24
o Cube.004
v 0.500000 0.503000 -0.503000
v 0.500000 0.497000 -0.503000
v -0.500000 0.503000 -0.503000
v -0.500000 0.497000 -0.503000
v 0.500000 0.503000 -0.497000
v 0.500000 0.497000 -0.497000
v -0.500000 0.503000 -0.497000
v -0.500000 0.497000 -0.497000
vn -0.0000 1.0000 -0.0000
vn -1.0000 -0.0000 -0.0000
vn -0.0000 -0.0000 1.0000
vn -0.0000 -1.0000 -0.0000
vn -0.0000 -0.0000 -1.0000
vn 1.0000 -0.0000 -0.0000
vt 0.625000 0.500000
vt 0.375000 0.500000
vt 0.625000 0.750000
vt 0.375000 0.750000
vt 0.875000 0.500000
vt 0.625000 0.250000
vt 0.125000 0.500000
vt 0.375000 0.250000
vt 0.875000 0.750000
vt 0.625000 1.000000
vt 0.625000 0.000000
vt 0.375000 1.000000
vt 0.375000 0.000000
vt 0.125000 0.750000
s 0
usemtl Material.005
f 33/57/25 35/59/25 39/65/25 37/61/25
f 36/60/26 40/68/26 39/66/26 35/59/26
f 40/69/27 38/64/27 37/62/27 39/67/27
f 38/63/28 40/70/28 36/60/28 34/58/28
f 34/58/29 36/60/29 35/59/29 33/57/29
f 38/64/30 34/58/30 33/57/30 37/62/30
o Cube.005
v 0.500000 0.503000 0.497000
v 0.500000 0.497000 0.497000
v -0.500000 0.503000 0.497000
v -0.500000 0.497000 0.497000
v 0.500000 0.503000 0.503000
v 0.500000 0.497000 0.503000
v -0.500000 0.503000 0.503000
v -0.500000 0.497000 0.503000
vn -0.0000 1.0000 -0.0000
vn -1.0000 -0.0000 -0.0000
vn -0.0000 -0.0000 1.0000
vn -0.0000 -1.0000 -0.0000
vn -0.0000 -0.0000 -1.0000
vn 1.0000 -0.0000 -0.0000
vt 0.625000 0.500000
vt 0.375000 0.500000
vt 0.625000 0.750000
vt 0.375000 0.750000
vt 0.875000 0.500000
vt 0.625000 0.250000
vt 0.125000 0.500000
vt 0.375000 0.250000
vt 0.875000 0.750000
vt 0.625000 1.000000
vt 0.625000 0.000000
vt 0.375000 1.000000
vt 0.375000 0.000000
vt 0.125000 0.750000
s 0
usemtl Material.006
f 41/71/31 43/73/31 47/79/31 45/75/31
f 44/74/32 48/82/32 47/80/32 43/73/32
f 48/83/33 46/78/33 45/76/33 47/81/33
f 46/77/34 48/84/34 44/74/34 42/72/34
f 42/72/35 44/74/35 43/73/35 41/71/35
f 46/78/36 42/72/36 41/71/36 45/76/36
o Cube.006
v 0.500000 -0.497000 0.497000
v 0.500000 -0.503000 0.497000
v -0.500000 -0.497000 0.497000
v -0.500000 -0.503000 0.497000
v 0.500000 -0.497000 0.503000
v 0.500000 -0.503000 0.503000
v -0.500000 -0.497000 0.503000
v -0.500000 -0.503000 0.503000
vn -0.0000 1.0000 -0.0000
vn -1.0000 -0.0000 -0.0000
vn -0.0000 -0.0000 1.0000
vn -0.0000 -1.0000 -0.0000
vn -0.0000 -0.0000 -1.0000
vn 1.0000 -0.0000 -0.0000
vt 0.625000 0.500000
vt 0.375000 0.500000
vt 0.625000 0.750000
vt 0.375000 0.750000
vt 0.875000 0.500000
vt 0.625000 0.250000
vt 0.125000 0.500000
vt 0.375000 0.250000
vt 0.875000 0.750000
vt 0.625000 1.000000
vt 0.625000 0.000000
vt 0.375000 1.000000
vt 0.375000 0.000000
vt 0.125000 0.750000
s 0
usemtl Material.007
f 49/85/37 51/87/37 55/93/37 53/89/37
f 52/88/38 56/96/38 55/94/38 51/87/38
f 56/97/39 54/92/39 53/90/39 55/95/39
f 54/91/40 56/98/40 52/88/40 50/86/40
f 50/86/41 52/88/41 51/87/41 49/85/41
f 54/92/42 50/86/42 49/85/42 53/90/42
o Cube.007
v 0.500000 -0.497000 -0.503000
v 0.500000 -0.503000 -0.503000
v -0.500000 -0.497000 -0.503000
v -0.500000 -0.503000 -0.503000
v 0.500000 -0.497000 -0.497000
v 0.500000 -0.503000 -0.497000
v -0.500000 -0.497000 -0.497000
v -0.500000 -0.503000 -0.497000
vn -0.0000 1.0000 -0.0000
vn -1.0000 -0.0000 -0.0000
vn -0.0000 -0.0000 1.0000
vn -0.0000 -1.0000 -0.0000
vn -0.0000 -0.0000 -1.0000
vn 1.0000 -0.0000 -0.0000
vt 0.625000 0.500000
vt 0.375000 0.500000
vt 0.625000 0.750000
vt 0.375000 0.750000
vt 0.875000 0.500000
vt 0.625000 0.250000
vt 0.125000 0.500000
vt 0.375000 0.250000
vt 0.875000 0.750000
vt 0.625000 1.000000
vt 0.625000 0.000000
vt 0.375000 1.000000
vt 0.375000 0.000000
vt 0.125000 0.750000
s 0
usemtl Material.008
f 57/99/43 59/101/43 63/107/43 61/103/43
f 60/102/44 64/110/44 63/108/44 59/101/44
f 64/111/45 62/106/45 61/104/45 63/109/45
f 62/105/46 64/112/46 60/102/46 58/100/46
f 58/100/47 60/102/47 59/101/47 57/99/47
f 62/106/48 58/100/48 57/99/48 61/104/48
o Cube.008
v -0.503000 0.500000 -0.503000
v -0.497000 0.500000 -0.503000
v -0.503000 -0.500000 -0.503000
v -0.497000 -0.500000 -0.503000
v -0.503000 0.500000 -0.497000
v -0.497000 0.500000 -0.497000
v -0.503000 -0.500000 -0.497000
v -0.497000 -0.500000 -0.497000
vn -1.0000 -0.0000 -0.0000
vn -0.0000 -1.0000 -0.0000
vn -0.0000 -0.0000 1.0000
vn 1.0000 -0.0000 -0.0000
vn -0.0000 -0.0000 -1.0000
vn -0.0000 1.0000 -0.0000
vt 0.625000 0.500000
vt 0.375000 0.500000
vt 0.625000 0.750000
vt 0.375000 0.750000
vt 0.875000 0.500000
vt 0.625000 0.250000
vt 0.125000 0.500000
vt 0.375000 0.250000
vt 0.875000 0.750000
vt 0.625000 1.000000
vt 0.625000 0.000000
vt 0.375000 1.000000
vt 0.375000 0.000000
vt 0.125000 0.750000
s 0
usemtl Material.009
f 65/113/49 67/115/49 71/121/49 69/117/49
f 68/116/50 72/124/50 71/122/50 67/115/50
f 72/125/51 70/120/51 69/118/51 71/123/51
f 70/119/52 72/126/52 68/116/52 66/114/52
f 66/114/53 68/116/53 67/115/53 65/113/53
f 70/120/54 66/114/54 65/113/54 69/118/54
o Cube.009
v 0.497000 0.500000 -0.503000
v 0.503000 0.500000 -0.503000
v 0.497000 -0.500000 -0.503000
v 0.503000 -0.500000 -0.503000
v 0.497000 0.500000 -0.497000
v 0.503000 0.500000 -0.497000
v 0.497000 -0.500000 -0.497000
v 0.503000 -0.500000 -0.497000
vn -1.0000 -0.0000 -0.0000
vn -0.0000 -1.0000 -0.0000
vn -0.0000 -0.0000 1.0000
vn 1.0000 -0.0000 -0.0000
vn -0.0000 -0.0000 -1.0000
vn -0.0000 1.0000 -0.0000
vt 0.625000 0.500000
vt 0.375000 0.500000
vt 0.625000 0.750000
vt 0.375000 0.750000
vt 0.875000 0.500000
vt 0.625000 0.250000
vt 0.125000 0.500000
vt 0.375000 0.250000
vt 0.875000 0.750000
vt 0.625000 1.000000
vt 0.625000 0.000000
vt 0.375000 1.000000
vt 0.375000 0.000000
vt 0.125000 0.750000
s 0
usemtl Material.010
f 73/127/55 75/129/55 79/135/55 77/131/55
f 76/130/56 80/138/56 79/136/56 75/129/56
f 80/139/57 78/134/57 77/132/57 79/137/57
f 78/133/58 80/140/58 76/130/58 74/128/58
f 74/128/59 76/130/59 75/129/59 73/127/59
f 78/134/60 74/128/60 73/127/60 77/132/60
o Cube.010
v 0.497000 0.500000 0.497000
v 0.503000 0.500000 0.497000
v 0.497000 -0.500000 0.497000
v 0.503000 -0.500000 0.497000
v 0.497000 0.500000 0.503000
v 0.503000 0.500000 0.503000
v 0.497000 -0.500000 0.503000
v 0.503000 -0.500000 0.503000
vn -1.0000 -0.0000 -0.0000
vn -0.0000 -1.0000 -0.0000
vn -0.0000 -0.0000 1.0000
vn 1.0000 -0.0000 -0.0000
vn -0.0000 -0.0000 -1.0000
vn -0.0000 1.0000 -0.0000
vt 0.625000 0.500000
vt 0.375000 0.500000
vt 0.625000 0.750000
vt 0.375000 0.750000
vt 0.875000 0.500000
vt 0.625000 0.250000
vt 0.125000 0.500000
vt 0.375000 0.250000
vt 0.875000 0.750000
vt 0.625000 1.000000
vt 0.625000 0.000000
vt 0.375000 1.000000
vt 0.375000 0.000000
vt 0.125000 0.750000
s 0
usemtl Material.011
f 81/141/61 83/143/61 87/149/61 85/145/61
f 84/144/62 88/152/62 87/150/62 83/143/62
f 88/153/63 86/148/63 85/146/63 87/151/63
f 86/147/64 88/154/64 84/144/64 82/142/64
f 82/142/65 84/144/65 83/143/65 81/141/65
f 86/148/66 82/142/66 81/141/66 85/146/66
o Cube.011
v -0.503000 0.500000 0.497000
v -0.497000 0.500000 0.497000
v -0.503000 -0.500000 0.497000
v -0.497000 -0.500000 0.497000
v -0.503000 0.500000 0.503000
v -0.497000 0.500000 0.503000
v -0.503000 -0.500000 0.503000
v -0.497000 -0.500000 0.503000
vn -1.0000 -0.0000 -0.0000
vn -0.0000 -1.0000 -0.0000
vn -0.0000 -0.0000 1.0000
vn 1.0000 -0.0000 -0.0000
vn -0.0000 -0.0000 -1.0000
vn -0.0000 1.0000 -0.0000
vt 0.625000 0.500000
vt 0.375000 0.500000
vt 0.625000 0.750000
vt 0.375000 0.750000
vt 0.875000 0.500000
vt 0.625000 0.250000
vt 0.125000 0.500000
vt 0.375000 0.250000
vt 0.875000 0.750000
vt 0.625000 1.000000
vt 0.625000 0.000000
vt 0.375000 1.000000
vt 0.375000 0.000000
vt 0.125000 0.750000
s 0
usemtl Material.012
f 89/155/67 91/157/67 95/163/67 93/159/67
f 92/158/68 96/166/68 95/164/68 91/157/68
f 96/167/69 94/162/69 93/160/69 95/165/69
f 94/161/70 96/168/70 92/158/70 90/156/70
f 90/156/71 92/158/71 91/157/71 89/155/71
f 94/162/72 90/156/72 89/155/72 93/160/72
